<svg id="Layer_1" data-name="Layer 1" xmlns="http://www.w3.org/2000/svg" viewBox="0 0 8.94 8.94"><defs><style>.cls-1{fill:#fff;}</style></defs><path class="cls-1" d="M356.37-57.92a4.47,4.47,0,0,1-4.47,4.47,4.47,4.47,0,0,1-4.47-4.47,4.48,4.48,0,0,1,4.47-4.47A4.47,4.47,0,0,1,356.37-57.92Zm-3.63-.57h-3.29a.43.43,0,0,0-.43.43v.29a.43.43,0,0,0,.43.43h3.29L351.38-56a.43.43,0,0,0,0,.61l.19.2a.44.44,0,0,0,.62,0l2.39-2.39a.43.43,0,0,0,0-.61l-2.39-2.39a.44.44,0,0,0-.62,0l-.19.19a.44.44,0,0,0,0,.62Z" transform="translate(-347.43 62.39)"/></svg>